<svg xmlns="http://www.w3.org/2000/svg" version="1.1" xmlns:xlink="http://www.w3.org/1999/xlink" xmlns:svgjs="http://svgjs.dev/svgjs" viewBox="0 0 800 800"><defs><linearGradient x1="50%" y1="0%" x2="50%" y2="100%" id="wwwhirl-grad"><stop stop-color="hsl(206, 75%, 49%)" stop-opacity="1" offset="45%"></stop><stop stop-color="hsl(331, 90%, 56%)" stop-opacity="1" offset="100%"></stop></linearGradient></defs><g stroke-width="2" stroke="url(#wwwhirl-grad)" fill="none" stroke-linecap="round"><path d="M-820.9999991607664 501.5936510329907C-774.7499978776409 400.306148222946 -691.499995568015 9.169887371553756 -598.9999930017641 15.413637544775696C-506.4999904355131 21.657387717997636 -469.4999894090127 467.044900074496 -376.99998684276176 531.563651864456C-284.4999842765109 596.0824036544161 -247.49998325001036 298.0473953859555 -154.99998068375942 325.10364613658385C-62.499978117508476 352.1598968872123 -25.499977091007963 725.2586572381856 67.00002547524298 661.4336554674724C159.5000280414938 597.6086536967592 196.5000290679941 21.51863771414824 289.00003163424503 18.74363763716073C381.5000342004962 15.968637560173221 418.5000352269965 641.8699049247103 511.00003779324743 648.1136550979322C603.5000403594984 654.3574052711541 640.5000413859989 27.207387871972713 733.0000439522498 48.713638468626044C825.5000465185005 70.21988906527938 862.5000475450008 711.7999068647961 955.000050111252 751.3436579618683C1047.5000526775032 790.8874090589406 1084.5000537040034 231.58614354210414 1177.0000562702544 238.52364373457303C1269.500058836506 245.46114392704186 1306.5000598630063 788.1124089819531 1399.0000624292566 784.6436588857187C1491.5000649955077 781.1749087894842 1574.7500673051331 339.11739652537096 1621.0000685882587 221.87364327264783 " transform="rotate(99, 400, 400)"></path><path d="M-783.9999994173915 498.51514663748947C-739.1515133246637 400.2969620944157 -658.4242383577538 21.013315208217136 -568.7272661722983 27.067860830735384C-479.0302939868428 33.12240645325363 -443.15150511266063 465.0133275262218 -353.4545329272052 527.576965625577C-263.7575607417498 590.1406037249321 -227.87877186756748 301.1369593433946 -138.181799682112 327.37332370764034C-48.48482749665652 353.60968807188607 -12.60603862247433 715.4024253819209 77.09093356298115 653.5115145739566C166.78790574843674 591.6206037659922 202.6666946226187 32.987860994975435 292.3636668080742 30.296951829411782C382.06063899352966 27.60604266384813 417.9394278677121 634.5406049567327 507.63640005316756 640.5951505792509C597.333372238623 646.6496962017692 633.2121611128052 38.50422478438098 722.9091332982607 59.35877081749936C812.606105483716 80.21331685061774 848.4848943578979 702.351515928937 938.1818665433536 740.6969715382193C1027.8788387288093 779.0424271475014 1063.7576276029915 236.68968482814483 1153.454599788447 243.41695774205402C1243.1515719739027 250.1442306559632 1279.030360848085 776.351517981938 1368.7273330335402 772.9878815249831C1458.4243052189954 769.6242450680286 1539.151580185905 340.9624149937369 1584.0000662786333 227.27150274867205 " transform="rotate(96, 400, 400)"></path><path d="M-746.9999996740165 495.4365506892537C-703.5530287716865 400.287684413151 -625.3484811474925 32.85665149214614 -538.4545393428325 38.7219925639607C-451.56059753817254 44.58733363577525 -416.80302081630856 462.9816634252131 -329.9090790116486 523.5901878339635C-243.01513720698858 584.1987122427139 -208.2575604851245 304.22643174809934 -121.36361868046458 329.6429097259624C-34.469676875804566 355.05938770382545 0.28789984605941754 705.5461019729216 87.18184165071943 645.5892821277062C174.07578345537945 585.6324622824907 208.83336017724332 44.45699272306824 295.72730198190334 41.85017446892846C382.62124378656335 39.243356214788676 417.37882050842745 627.2112134360206 504.27276231308747 633.0765545078351C591.1667041177475 638.9418955796497 625.9242808396114 49.80097014405486 712.8182226442714 70.00381161363829C799.7121644489312 90.20665308322174 834.4697411707953 692.9030334403435 921.3636829754553 730.0501935618357C1008.2576247801153 767.1973536833278 1043.0152015019794 241.7931345614511 1129.9091433066394 248.31018019680064C1216.8030851112994 254.82722583215013 1251.560661833164 764.5905354291881 1338.4546036378233 761.3320126115133C1425.348545442483 758.0734897938385 1503.5530930666769 342.8073419093684 1547.0000639690074 232.6692706719618 " transform="rotate(93, 400, 400)"></path><path d="M-709.9999999306416 492.35774111797105C-667.9545442187094 400.2781931088394 -592.2727239372313 44.69977415302827 -508.1818125133668 50.375910674139135C-424.0909010895023 56.05204719524998 -390.4545365199565 460.9497857011577 -306.363625096092 519.6031964193032C-222.2727136722276 578.2566071374487 -188.6363491026816 307.31569052975715 -104.54543767881717 331.9122821212375C-20.45452625495261 356.5088737127179 13.181838314593278 695.6895649408755 97.27274973845783 637.666836058409C181.36366116232227 579.6441071759424 215.00002573186794 55.92591082811417 299.0909371557325 53.40318348539826C383.1818485795968 50.880456142682334 416.8182131491428 619.8816082922616 500.9091245730074 625.5577448133724C585.0000359968719 631.2338813344833 618.6364005664177 61.097501880681875 702.7273119902823 80.64863878673036C786.8182234141464 100.19977569277884 820.4545879836924 683.4543373287032 904.5454994075569 719.4032019624052C988.6364108314215 755.3520665961073 1022.2727754009675 246.89637067171049 1106.363686824832 253.20318902850033C1190.4545982486966 259.51000738529024 1224.0909628182421 752.8293392533914 1308.1818742421065 749.6759300749965C1392.2727856659708 746.5225208966015 1467.9546059474487 344.65205520195303 1510.0000616593816 238.06682497220473 " transform="rotate(90, 400, 400)"></path><path d="M-673.0000001872668 489.279328275204C-632.3560596657322 400.2690985330435 -559.19696672697 56.54329354242603 -477.9090856839011 62.030225512833184C-396.62120464083205 67.51715748324035 -364.1060522236044 458.91830470561774 -282.81817118053544 515.6166017331584C-201.5302901374664 572.3148987606991 -169.01513772023873 310.4053460399306 -87.72725667716975 334.18205124502833C-6.4393756341006565 357.95875645012603 26.075776783127026 685.833424637345 107.36365782619589 629.7447867176273C188.65153886926498 573.6561487979096 221.16669128649255 67.39522566167574 302.4545723295614 64.95658923038367C383.7424533726305 62.51795279909162 416.2576057898582 612.5523998770182 497.5454868329273 618.0393318474254C578.8333678759961 623.5262638178325 611.348520293224 72.3944303458245 692.6364013362929 91.29386268833804C773.924282379362 110.19329503085157 806.4394347965892 674.0060379455784 887.7273158396586 708.7566070914904C969.0151968827277 743.5071762374024 1001.5303492999551 252.0000035104855 1082.8182303430242 258.0965945887157C1164.1061113860935 264.1931856669459 1196.6212638033212 741.0685398061104 1277.90914484639 738.0202442669952C1359.197025889459 734.9719487278802 1432.356118828221 346.49716522305334 1473.0000593497557 243.46477600096327 " transform="rotate(87, 400, 400)"></path><path d="M-636.0000004438918 486.2007323269683C-596.757575112755 400.2598208517788 -526.1212095167089 68.38662982635503 -447.63635885443534 73.6843572460585C-369.1515081921618 78.98208466576196 -337.75756792725235 456.88664060460906 -259.27271726497884 511.6298239415449C-180.78786660270532 566.3730072784806 -149.39392633779585 313.4948184446353 -70.90907567552233 336.45163726335034C7.5757749867512985 359.40845608206536 38.96971525166066 675.9771012283458 117.45456591393429 621.8225542713769C195.9394165762077 567.6680073144082 227.33335684111717 78.86435738976854 305.8182075033907 76.50981186990035C384.30305816566397 74.15526635003215 415.6969984305738 605.2230083563061 494.1818490928472 610.5207357760096C572.6666997551206 615.8184631957131 604.0606400200302 83.6911757054984 682.5454906823038 101.93890348447698C761.030341344577 120.18663126345557 792.4242816094866 664.5575554569849 870.9091322717602 698.1098291151068C949.3939829340338 731.6621027732289 980.787923198943 257.10345324379176 1059.2727738612168 262.98981704346227C1137.7576245234907 268.87618084313283 1169.1515647883998 729.3075572533606 1247.6364154506732 726.3643753535254C1326.1212661129466 723.4211934536901 1396.757631708993 348.34209213868485 1436.0000570401298 248.86254392425306 " transform="rotate(84, 400, 400)"></path><path d="M-599.0000617356732 483.1221058611544C-561.1591515949342 400.250512652936 -493.04551334160385 80.22993559270591 -417.3636930601258 85.33845846170568C-341.6818727786478 90.44698133070546 -311.4091446660566 454.85494598602236 -235.72732438457854 507.64301563235324C-160.04550410310048 560.4310852786842 -129.77277599050922 316.5842603317619 -54.09095570903105 338.72119276409427C21.59086457244689 360.85812519642656 51.86359268503827 666.1207473017685 127.54541296651632 613.9002913075485C203.22723324799438 561.6798353133286 233.49996136058542 90.33345860028322 309.18178164206347 88.0630039918389C384.8636019235414 85.79254938339457 415.1363300361327 597.8935863180159 490.81815031761084 603.0021091870157C566.4999705990888 608.1106320560154 596.7726987116803 94.98789054759415 672.4545189931582 112.5839137630378C748.1363392746362 130.17993697848144 778.4090673872272 655.1090424508134 854.0908876687056 687.4630206211452C929.7727079501835 719.8169987914771 960.0454360627748 262.2068724595199 1035.7272563442532 267.88300898063073C1111.4090766257311 273.5591455017417 1141.6818047383224 717.5465441830328 1217.3636250198 714.7084759224773C1293.0454453012783 711.8704076619217 1361.1590835546085 350.18698853673817 1398.9999936953473 254.26028132996476 " transform="rotate(81, 400, 400)"></path><path d="M-562.0000619922982 480.04341836018426C-525.560667041957 400.2411434189369 -459.96975613134265 92.07318032390054 -387.0909662306601 96.99249864219662C-314.2121763299775 101.9118169604927 -285.0606603697045 452.8231903322793 -212.18187046902193 503.6561462880054C-139.3030805683394 554.4891022437316 -110.15156460806634 319.67364118373223 -37.272774707383746 340.9906872296819C35.606015193298845 362.30773327563156 64.75753115357202 656.2643323400348 137.6363210542546 605.9779673085638C210.5151109549371 555.6916022770927 239.66662691521014 101.80249877564165 312.5454168158926 99.6161350786212C385.4242067165751 97.42977138160073 414.5757226768483 590.5641032445694 487.454512577531 595.4834215628655C560.3333024782135 600.4027398811616 589.4848184384866 106.28454435453367 662.3636083391691 123.22886300644235C735.2423982398516 140.17318165835104 764.3939142001245 645.6604684094855 837.2727041008072 676.8161510920272C910.1514940014897 707.971833774569 939.3030099617627 267.3102306400918 1012.1817998624454 272.776139882643C1085.060589763128 278.2420491251942 1114.212105723401 705.7854700775486 1187.0908956240837 703.0525154562729C1259.969685524766 700.3195608349972 1325.5605964353804 352.03182389963536 1361.9999913857216 259.6579577005201 " transform="rotate(78, 400, 400)"></path><path d="M-525.0000622489233 476.9648224119485C-489.9621824889798 400.23186573767214 -426.89399892108145 103.91651660782955 -356.8182394011943 108.64663037542194C-286.7424798813073 113.3767441430143 -258.7121760733524 450.7915262312707 -188.63641655346532 499.6693684963919C-118.56065703357825 548.5472107615132 -90.53035322562334 322.76311358843697 -20.454593705736215 343.26027324800395C49.6211658141508 363.7574329075709 77.65146962210576 646.4080089310355 147.72722914199278 598.0557348623134C217.8029886618799 549.7034607935913 245.83329246983465 113.27163050373447 315.90905198972166 111.16935771813786C385.9848115096088 109.06708493254126 414.01511531756364 583.2347117238572 484.0908748374509 587.9648254914496C554.1666343573379 592.694939259042 582.1969381652927 117.58128971420754 652.2726976851798 133.87390380258128C722.3484572050668 150.16651789095502 750.3787610130214 636.211985920892 820.4545205329086 666.1693731156437C890.5302800527959 696.1267603103954 918.5605838607507 272.41368037339805 988.636343380638 277.6693623373896C1058.7121029005252 282.92504430138115 1086.74240670848 694.0244875247988 1156.8181662283669 691.3966465428031C1226.8939257482539 688.7688055608072 1289.9621093161522 353.87675081526686 1324.9999890760957 265.05572562380996 " transform="rotate(75, 400, 400)"></path><path d="M-488.0000625055485 473.88631801644715C-454.36369793600267 400.22267960914184 -393.8182417108202 115.75994444449293 -326.54551257172864 120.30085366138162C-259.27278343263697 124.8417628782703 -232.36369177700033 448.7599536829964 -165.09096263790877 495.6826822575128C-97.81823349881716 542.6054108320293 -70.90914184318052 325.852677545876 -3.636412704088798 345.52995081906033C63.636316435002755 365.2072240922446 90.5454080906394 636.5517770747707 157.81813722973106 590.1335939687974C225.09086636882262 543.7154108628242 251.99995802445915 124.74085378456165 319.2726871635508 122.72267191038891C386.5454163026425 120.70449003621617 413.4545079582791 575.9054117558795 480.72723709737056 580.4463209727683C547.9999662364623 584.9872301896569 574.9090578920991 128.87812662661582 642.1817870311907 144.5190361514546C709.454516170282 160.15994567629338 736.3636078259187 626.7635949850328 803.6363369650103 655.5226866919945C870.9090661041021 684.2817783989561 897.8181577597388 277.5172216594387 965.0908868988306 282.56267634487057C1032.363616037922 287.6081310303025 1059.2727076935587 682.2635965247835 1126.54543683265 679.7408691820675C1193.8181659717416 677.2181418393515 1254.363622196924 355.72176928363274 1287.9999867664699 270.4535850998341 " transform="rotate(72, 400, 400)"></path><path d="M-451.00006276217357 470.8077068094223C-418.7652133830255 400.2133866690881 -360.742484500559 127.60326546963287 -296.27278574226284 131.95497013581786C-231.80308698396675 136.30667480200285 -206.01520748064831 446.72827432319866 -141.54550872235217 491.6958892071102C-77.07580996405608 536.6635040910218 -51.28793046073753 328.9421346917917 13.18176829755862 347.79952157859327C77.6514670558546 366.65690846539496 103.43934655917315 626.6954384069825 167.90904531746924 582.2113462637581C232.37874407576544 537.7272541205336 258.16662357908376 136.20997025386538 322.63632233737985 134.27587929111652C387.10602109567594 132.34178832836767 412.8939005989945 568.5760049763784 477.3635993572907 572.9277096425634C541.8332981155868 577.2794143087483 567.6211776189052 140.17485672750064 632.0908763772013 155.16406168880445C696.5605751354974 170.15326665010832 722.3484546388158 617.3150972376502 786.8181533971119 644.8758934568218C851.2878521554082 672.4366896759934 877.0757316587265 282.6206561339559 941.5454304170228 287.45588354082815C1006.0151291753191 292.2911109477003 1031.8030086786375 670.5025987132445 1096.2727074369336 668.0849850098084C1160.7424061952293 665.6673713063723 1218.765135077696 357.5666809404752 1250.999984456844 275.85133776433486 " transform="rotate(69, 400, 400)"></path><path d="M-414.00006301879864 467.7290956023975C-383.1667288300483 400.2040937290343 -327.66672729029773 139.44658649477282 -266.0000589127971 143.6090866102541C-204.33339053529647 147.7715867257354 -179.66672318429625 444.696594963401 -118.00005480679562 487.7090961567077C-56.33338642929499 530.7215973500145 -31.666719078294705 332.0315918377073 29.99994929920598 350.06909233812627C91.66661767670666 368.1065928385452 116.33328502770689 616.8390997391941 177.99995340520752 574.2890985587187C239.66662178270815 531.7390973782431 264.3332891337084 147.67908672316915 325.999957511209 145.82908667184415C387.66662588870963 143.97908662051913 412.33329323970986 561.2465981968772 473.9999616172106 565.4090983123585C535.6666299947112 569.5715984278397 560.3332973457113 151.47158682838545 621.9999657232122 165.80908722615436C683.6666341007126 180.14658762392324 708.3333014517129 607.8665994902677 769.9999698292136 634.2291002216493C831.6666382067142 660.5916009530307 856.3333055577145 287.72409060847315 917.9999739352154 292.3490907367857C979.666642312716 296.9740908650982 1004.3333096637164 658.7416009017057 1065.9999780412168 656.4291008375494C1127.6666464187172 654.1166007733932 1183.1666479584678 359.4115925973176 1213.9999821472181 281.24909042883553 " transform="rotate(66, 400, 400)"></path><path d="M-377.00006327542377 464.65063698326327C-347.5682442770712 400.1949533768712 -294.5909700800365 151.29006010780338 -235.72733208333136 155.26335567258099C-176.8636940866262 159.2366512373586 -153.31823888794418 442.6650681914939 -94.45460089123901 483.72245569419573C-35.5909628945339 524.7798431968977 -12.045507695851768 335.1212015715136 46.818130300853454 352.3388156855499C105.68176829755862 369.5564297995861 129.22722349624064 606.9829136592964 188.0908614929458 566.3670034415698C246.95449948965097 525.7510932238432 270.499954688333 159.14835578036352 329.36359268503816 157.38244664046238C388.2272306817432 155.6165375005612 411.77268588042534 553.9173440052666 470.6363238771305 557.8906395700442C529.4999618738358 561.8639351348219 553.0454170725177 162.7684695171609 611.9090550692231 176.45426535139484C670.772693065928 190.14006118562878 694.31814826461 598.4182543307758 753.1817862613152 623.5824595743672C812.0454242580204 648.7466648179586 835.5908794567024 292.8276776708809 894.4545174534078 297.24245052063384C953.318155450113 301.65722337038676 976.863610648795 646.9807556780576 1035.7272486455001 644.773369253181C1094.5908866422049 642.5659828283046 1147.5681608392395 361.2566568420507 1176.9999798375923 286.64699568122694 " transform="rotate(63, 400, 400)"></path><path d="M-340.00006353204884 461.57199525866037C-311.96975972409405 400.1856299192393 -261.51521286977527 163.1333506153652 -205.45460525386565 166.9174416294391C-149.39399763795598 170.70153264351302 -126.96975459159205 440.6333583141181 -70.90914697568246 479.7356321262151C-14.848539359772815 518.8379059383121 7.575703686591169 338.21062819985116 63.636311302500815 354.6083559275047C119.69691891841057 371.00608365515825 142.1211619647745 597.1265444739299 198.1817695806841 558.4447252189523C254.24237719659368 519.7629059639746 276.6666202429575 170.61744173208913 332.7272278588672 168.93562350361185C388.7878354747769 167.2538052751346 411.2120785211408 546.5879067081873 467.2726861370505 550.3719977222613C523.33329375296 554.1560887363352 545.757536799324 174.06516910046759 601.8181444152336 187.0992603711666C657.8787520311432 200.13335164186557 680.3029950775071 588.9697260658152 736.3636026934169 612.9356358216164C792.4242103093268 636.9015455774179 814.8484533556905 297.93108162782 870.9090609716002 302.13562719901324C926.9696685875101 306.3401727702065 949.3939116338738 635.2197273489406 1005.4545192497833 633.1174545633439C1061.5151268656928 631.0151817777473 1111.9696737200118 363.101537981315 1139.9999775279664 292.0447178281495 " transform="rotate(60, 400, 400)"></path><path d="M-303.00006378867397 458.49341456921366C-276.37127517111685 400.17636749676365 -228.43945565951407 174.97670215808327 -175.18187842439988 178.5715886214535C-121.92430118928573 182.16647508482367 -100.62127029524004 438.6017094718985 -47.363693060125854 475.7488695933906C5.8938841749883295 512.8960297148828 27.19691506903405 341.3001158633449 80.45449230414823 356.87795720461577C133.71206953926247 372.4557985458867 155.01510043330813 587.2702363237197 208.27267766842238 550.522508031491C261.5302549035365 513.7747797392622 282.8332857975821 182.086588718971 336.09086303269635 180.48886140191757C389.3484402678105 178.89113408486418 410.6514711618562 539.2585304462643 463.90904839697043 542.8534169096345C517.1666256320846 546.4483033730048 538.4696565261303 185.36192971893055 591.7272337612445 197.7443164260946C644.9848109963584 210.12670313325862 666.2878418904043 579.5212588360107 719.5454191255185 602.288873104022C772.8029963606327 625.0564873720332 794.1060272546783 303.0345466199153 847.3636044897928 307.0288649125489C900.621181724907 311.0231832051825 921.9242126189527 623.4587600549798 975.1817898540667 621.4616009086631C1028.4393670891807 619.4644417623463 1076.3711866007834 364.94648015573557 1102.9999752183405 297.44250101022834 " transform="rotate(57, 400, 400)"></path><path d="M-266.00006404529904 455.41475758582163C-240.7727906181397 400.16702878034266 -195.36369844925284 186.81997740685603 -144.90915159493414 190.22565931952255C-94.45460474061545 193.63134123218907 -74.27278599888797 436.5699843357336 -23.818239144569247 471.7620307666209C26.636307709749417 506.9540771975082 46.81812645147693 344.38952723289333 97.27267330579559 359.1474821877816C147.7272201601143 373.90543714266977 167.90903890184188 577.4138518795643 218.36358575616055 542.6002145500844C268.8181326104793 507.78657722060444 288.9999513522067 193.55565941190758 339.4544982065254 192.04202300627801C389.90904506084416 190.52838660064845 410.0908638025717 531.929077890396 460.54541065689034 535.3347598030625C510.999957511209 538.740441715729 531.1817762529366 196.65861404344818 581.6363231072552 208.38929618707726C632.0908699615738 220.11997833070637 652.2726887033012 570.0727153122609 702.7272355576201 591.6420340924822C753.1817824119389 613.2113528727034 773.3636011536662 308.13793531806533 823.8181480079852 311.92202633213924C874.2726948623038 315.7061173462132 894.4545136040313 611.6977164670739 944.9090604583498 609.8056709600369C995.3636073126686 607.9136254529999 1040.7726994815555 366.7913460362109 1065.9999729087147 302.8402078983619 " transform="rotate(54, 400, 400)"></path><path d="M-229.00006430192414 452.3361006024296C-205.17430606516254 400.15769006392173 -162.2879412389916 198.66325265562878 -114.6364247654684 201.8797300175916C-66.9849082919452 205.09620737955441 -47.9243017025359 434.53825919956876 -0.2727852290126975 467.77519193985114C47.378731244510504 501.01212468013364 66.43933783391986 347.47893860244176 114.09085430744307 361.4170071709474C161.74237078096627 375.3550757394529 180.80297737037563 567.5574674354089 228.45449384389883 534.6779210686777C276.10601031742203 501.7983747019467 295.16661690683134 205.02473010484414 342.81813338035454 203.59518461063846C390.46964985387774 202.16563911643274 409.53025644328704 524.5996253345277 457.18177291681025 527.8161026964905C504.83328939033345 531.0325800584533 523.8938959797429 207.95529836796584 571.5454124532661 219.03427594805996C619.1969289267892 230.1132535281541 638.2575355161985 560.6241717885111 685.9090519897217 580.9951950809424C733.5605684632451 601.3662183733736 752.6211750526543 313.24132401621534 800.2726915261776 316.8151877517296C847.9242079997009 320.3890514872439 866.9848145891101 599.9366728791679 914.6363310626332 598.1497410114107C962.2878475361563 596.3628091436535 1005.1742123623274 368.6362119166861 1028.9999705990888 308.2379147864954 " transform="rotate(51, 400, 400)"></path><path d="M-192.00006455854924 449.25755043056114C-169.57582151218537 400.14845815902424 -129.2121840287304 210.50663471592497 -84.36369793600267 213.5339075271841C-39.515211843274926 216.56118033844322 -21.57581740618383 432.5066408749273 23.272668686543852 463.7884599246049C68.12115477927159 495.0702789742825 86.06054921636274 350.56845678351374 130.90903530909048 363.6866389656366C175.75752140181822 376.8048211477594 193.69691583890932 557.7011898027769 238.54540193163706 526.7557343987946C283.39388802436486 495.8102789948125 301.33328246145584 216.49390760930413 346.1817685541836 215.1484530265223C391.0302546469113 213.80299844374048 408.9696490840025 517.2702795901828 453.81813517673027 520.2975524014419C498.666621269458 523.324825212701 516.6060157065491 219.2520895040069 561.4545017992768 229.6793625205661C606.3029878920045 240.10663553712527 624.2423823290954 551.1757350762849 669.0908684218233 570.348462880926C713.9393545145512 589.521190685567 731.8787489516423 318.34481952588885 776.72723504437 321.7084559828434C821.5757211370978 325.072092439798 839.5151155741889 588.1757361027853 884.3636016669166 586.493917874308C929.2120877596442 584.8120996458307 969.575725243099 370.4811846086849 991.9999682894631 313.6357284861524 " transform="rotate(48, 400, 400)"></path><path d="M-155.00006481517434 446.1789392235363C-133.97733695920823 400.13916521897045 -96.13642681846916 222.34995574106492 -54.09097110653693 225.18802400162036C-12.045515394604678 228.02609226217578 4.772666890168239 430.4749615151296 46.818122602100516 459.8016668742024C88.86357831403268 489.1283722332751 105.68176059880568 353.65791392942936 147.7272163107379 365.9562097251695C189.77267202267018 378.25450552090973 206.59085430744312 547.8448511349885 248.6363100193754 518.8334866937553C290.6817657313077 489.822122252522 307.49994801608045 227.96302407860787 349.54540372801273 226.7016604072499C391.5908594399449 225.44029673589193 408.4090417247179 509.9408728106816 450.4544974366502 512.778941071237C492.49995314858245 515.6170093317924 509.31813543335534 230.54881960489172 551.3635911452876 240.32438805791597C593.4090468572197 250.09995651094022 610.2272291419927 541.7272373289024 652.2726848539249 559.7016696457533C694.3181405658572 577.6761019626044 711.1363228506302 323.448254000406 753.1817785625625 326.60166317880095C795.2272342744948 329.7550723571959 812.0454165592676 576.4147382912465 854.0908722711997 574.838033702049C896.1363279831319 573.2613291128515 933.9772381238708 372.3260962655273 954.9999659798373 319.03348115065313 " transform="rotate(45, 400, 400)"></path><path d="M-118.0000574424049 443.10031275772246C-98.37884477683652 400.1298570201277 -63.060661978813414 234.1932615074158 -23.818236647676656 236.84212521726755C15.424188683460102 239.49098892711925 31.12115881591484 428.4432668965428 70.3635841470516 455.8148585650107C109.60600947818835 483.1864502334786 125.30297961064309 356.7473558165559 164.54540494177985 368.22576522591345C203.78783027291666 379.704174635271 219.48480040537135 537.9884972084112 258.72722573650816 510.91122372992675C297.96965106764486 483.8339502514424 313.6666212000996 239.43212528912255 352.9090465312363 238.25485252918844C392.151471862373 237.07757976925436 407.8484419948279 502.6114507723913 447.0908673259646 505.2603144822431C486.3332926571013 507.9091781920948 502.0302627895561 241.84553444698747 541.2726881206929 250.9693983364768C580.5151134518295 260.0932622259661 596.2120835842843 532.2787243227308 635.4545089154211 549.0548611517917C674.6969342465579 565.8309979808528 690.3939043790125 328.5516732161342 729.6363297101494 331.4948551159694C768.8787550412864 334.4380370158047 784.5757251737409 564.6537252209187 823.8181505048776 563.1821342710009C863.0605758360143 561.7105433210834 898.3787586340375 374.1709926635807 917.9999712996059 324.4312185563648 " transform="rotate(42, 400, 400)"></path><path d="M-81.00002718145187 440.0217320682757C-62.780329706281236 400.12059459765203 -29.98487425097406 246.03661305013387 6.454520699367208 248.4962722092819C42.893915649708504 250.95593136842996 57.469673629845005 426.41161805432324 93.9090685801863 451.8280960321863C130.34846353052757 477.2445740100494 144.9242215106641 359.8368434800497 181.3636164610054 370.49536650302457C217.8030114113467 381.1538895259994 232.37876939148327 528.132189058201 268.81816434182457 502.9890065424655C305.2575592921658 477.84582402672993 319.83331727230234 250.90127227600442 356.2727122226436 249.8080904274942C392.7121071729848 248.71490857898397 407.2878651531214 495.2820745104683 443.72726010346275 497.74173366961634C480.166655053804 500.20139282876437 494.7424130339406 253.1422950654504 531.1818079842818 261.61445439140476C567.621202934623 270.0866137173591 582.1969609147595 522.8302570929263 618.6363558651009 538.4080984341972C655.0757508154421 553.9859397754681 669.6515087955786 333.65513820822946 706.09090374592 336.3880928295051C742.5302986962613 339.1210474507807 757.1060566763978 552.8927579269579 793.5454516267391 551.52628061632C829.9848465770802 550.1598033056822 862.7803020323875 376.0159348380013 880.9999995075582 329.82900173844365 " transform="rotate(39, 400, 400)"></path><path d="M-43.999996920498845 436.94317426701264C-27.181814635725942 400.11135506335995 3.090913476865296 257.8799874810355 36.72727804641107 260.15044208947984C70.3636426159569 262.4208966979242 83.81818844377523 424.37999210028727 117.454553013321 447.8413563875455C151.09091758286684 471.3027206748037 164.5454634106851 362.9263540317271 198.181827980231 372.76499066831923C231.81819254977677 382.60362730491136 245.2727383775951 518.2759037961744 278.9091029471409 495.06681224318777C312.5454675166867 471.8577206902012 326.00001334450496 262.3704421510699 359.6363779140508 261.36135121398354C393.27274248359663 260.35226027689714 406.7272883114149 487.9527211367288 440.3636528809607 490.2231757451732C474.00001745050656 492.4936303536175 487.45456327832494 264.43907857209695 521.0909278478707 272.2595333345164C554.7272924174164 280.0799880969357 568.1818382452348 513.3818127513055 601.8182028147805 527.7613586047863C635.4545673843264 542.1409044582672 648.9091132121448 338.75862608850844 682.5454777816907 341.2813534312244C716.1818423512364 343.8040807739403 729.6363881790547 541.1318135211808 763.2727527486004 539.8704498498228C796.9091173181462 538.6090861784648 827.1818454307374 377.86089990060543 844.0000277155103 335.2268078087061 " transform="rotate(36, 400, 400)"></path><path d="M-6.999997177123944 433.86457831877686C8.416669917251212 400.1020773820953 36.166670687126526 269.72332376496456 67.00000487587684 271.80457382270515C97.83333906462715 273.88582388044586 110.16667274012727 422.34832799927864 141.00000692887758 443.85457859593197C171.8333411176279 465.36082919258536 184.16667479312804 366.0158264364318 215.0000089818784 375.03457668664123C245.83334317062872 384.05332693685074 258.16667684612884 508.4195803871752 289.00001103487915 487.1445797969375C319.83334522362946 465.86957920669965 332.1666788991296 273.8395738791627 363.0000130878799 272.9145738535002C393.8333472766302 271.9895738278377 406.1666809521303 480.62332961601675 437.0000151408807 482.7045796737574C467.833349329631 484.785829731498 480.16668300513106 275.7358239317708 511.0000171938815 282.9045741306553C541.8333513826317 290.07332432953973 554.1666850581319 503.933330262712 585.0000192468822 517.1145806284028C615.8333534356325 530.2958309940934 628.1666871111327 343.8620758218147 659.0000212998831 346.17457588597097C689.8333554886334 348.48707595012723 702.1666891641336 529.3708309684309 733.0000233528838 528.2145809363528C763.833357541634 527.0583309042747 791.5833583115093 379.70582681623694 807.0000254058845 340.6245757319959 " transform="rotate(33, 400, 400)"></path><path d="M30.00000256625097 430.7859823705411C44.01515447022838 400.0927997008306 69.24242789738776 281.56666004889354 97.27273170534255 283.45870555593046C125.3030355132974 285.35075106296745 136.51515703647937 420.31666389827 164.54546084443416 439.86780080431845C192.57576465238898 459.418937710367 203.78788617557097 369.1052988411365 231.81818998352583 377.3041627049633C259.8484937914807 385.50302656879006 271.06061531466264 498.5632569781759 299.09091912261744 479.2223473506871C327.12122293057223 459.88143772319825 338.33334445375414 285.3087056072555 366.363648261709 284.46779649301686C394.39395206966384 283.62688737877824 405.6060735928458 473.2939380953046 433.63637740080065 475.1859836023416C461.6666812087554 477.0780291093785 472.8788027319374 287.03256929144476 500.90910653989226 293.5496149267942C528.939410347847 300.06666056214374 540.151531871029 494.4848477741185 568.1818356789838 506.46780265201915C596.2121394869388 518.4507575299199 607.4242610101206 348.96552555512096 635.4545648180755 351.06779834071756C663.4848686260304 353.17007112631416 674.6969901492123 517.6098484156812 702.727293957167 516.5587120228829C730.7575977651218 515.5075756300846 755.9848711922813 381.55075373186844 770.0000230962586 346.0223436552857 " transform="rotate(30, 400, 400)"></path><path d="M67.00000230962587 427.70737879291084C79.61363902320554 400.08351439017133 102.31818510764897 293.409988703428 127.54545853480832 295.11282965976125C152.77273196196768 296.8156706160945 162.8636413328314 418.2849921678668 188.09091475999077 435.88101538331046C213.3181881871501 453.4770385987541 223.40909755801385 372.19476361644666 248.6363709851732 379.5737410938908C273.8636444123325 386.9527185713349 283.95455378319633 488.70692593978214 309.18182721035566 471.3001072750422C334.40910063751505 453.8932886103022 344.50001000837875 296.77782970595376 369.7272834355381 296.021011503139C394.9545568626975 295.2641933003242 405.0454662335612 465.964538945198 430.27273966072056 467.66737990153126C455.5000130878799 469.3702208578645 465.5909224587437 298.3293070217241 490.818195885903 304.1946480935386C516.0454693130623 310.05998916535316 526.1363786839261 485.03635765613046 551.3636521110855 495.8210170462411C576.5909255382448 506.6056764363517 586.6818349091085 354.06896765903264 611.909108336268 355.9610131660696C637.1363817634273 357.8530586731066 647.227291134291 505.84885823353693 672.4545645614503 504.90283548001844C697.6818379886097 503.95681272649995 720.3863840730531 383.3956730181054 733.0000207866327 351.42010394918094 " transform="rotate(27, 400, 400)"></path><path d="M104.00000205300077 424.62875995649154C115.2121235761827 400.07421382072306 135.3939423179102 305.2533020991734 157.81818536427406 306.76693850480297C180.24242841063793 308.28057491043256 189.21212562918348 416.2533051786746 211.63636867554732 431.8942147035134C234.0606117219112 447.5351242283522 243.03030894045676 375.2842131329678 265.45455198682066 381.8433042240292C287.8787950331845 388.40239531509064 296.84849225173 478.85057964259937 319.27273529809395 463.37785194060825C341.6969783444578 447.9051242386172 350.6666755630033 308.24693854586303 373.0909186093672 307.57421125447206C395.51516165573105 306.9014839630812 404.48485887427665 458.6351245363023 426.9091019206405 460.14876094193187C449.3333449670044 461.6623973475614 458.30304218554994 309.6260294932144 480.7272852319138 314.839666001494C503.1515282782776 320.0533025097736 512.1212254968232 475.5878522793534 534.5454685431871 485.17421618167396C556.969711589551 494.76058008399445 565.9394088080965 359.17239450415536 588.3636518544604 360.8542127326326C610.7878949008243 362.53603096110993 619.7575921193699 494.0878527926036 642.1818351657337 493.2469436783649C664.6060782120975 492.4060345641263 684.7878969538249 385.2405770455534 696.000018477007 356.81784898428714 " transform="rotate(24, 400, 400)"></path><path d="M141.00000179637567 421.5502021552284C150.81060812915985 400.06497428643104 168.46969952817142 317.0966765300751 188.0909121937398 318.42110838500093C207.71212485930818 319.7455402399268 215.56060992553554 414.2216792246386 235.18182259110392 427.90747505887254C254.8030352566723 441.5932708931065 262.65152032289967 378.37372368464514 282.2727329884681 384.1129283893239C301.89394565403643 389.8521330940027 309.74243072026377 468.9942943805728 329.36364338583223 455.45565764133056C348.9848560514006 441.9170209020884 356.8333411176279 319.71610842092844 376.4545537831963 319.12747204096144C396.0757664487646 318.5388356609944 403.9242515149921 451.30577116256285 423.54546418056043 452.6302030174887C443.1666768461288 453.9546348724146 451.0151619123562 320.9228129998609 470.6363745779246 325.48474494460555C490.2575872434929 330.04667688935024 498.1060723097203 466.1394079377326 517.7272849752887 474.527476352263C537.3484976408571 482.9155447667936 545.1969827070843 364.2758823844343 564.8181953726528 365.7474733343519C584.4394080382212 367.2190642842695 592.2878931044486 482.3269083868265 611.9091057700169 481.59111291186764C631.5303184355853 480.8553174369089 649.1894098345969 387.08554210815754 659.0000161673811 362.2156550545496 " transform="rotate(21, 400, 400)"></path><path d="M177.99998628096154 418.47156043062546C186.40907742334798 400.0556508287991 201.54544147964359 328.9399670376369 218.36362376441647 330.07519434185906C235.1818060491894 331.2104216460813 241.90907896309855 412.1899693472628 258.7272612478714 423.9206514908919C275.54544353264436 435.651333634521 282.2727164465535 381.4631503129827 299.09089873132643 386.38246863127875C315.9090810160993 391.3017869495748 322.63635393000845 459.1379251952063 339.4545362147814 447.533379418713C356.2727184995543 435.92883364221973 362.9999914134634 331.1851943726541 379.81817369823636 330.6806489041109C396.63635598300925 330.1761034355677 403.3636288969184 443.9763338654835 420.1818111816913 445.11156116970574C436.9999934664642 446.2467884739279 443.7272663803734 332.2195125831676 460.5454486651463 336.12973996437734C477.3636309499191 340.039967345587 484.0909038638283 456.69087967277187 500.9090861486012 463.8806525995123C517.7272684333741 471.07042552625273 524.4545413472833 369.37928634137336 541.2727236320563 370.6406500127313C558.0909059168291 371.9020136840893 564.8181788307384 470.56588005770953 581.6363611155111 469.9351982220305C598.454543400284 469.30451638635157 613.5909074565797 388.93042324742186 621.9999985989662 367.6133772014722 " transform="rotate(18, 400, 400)"></path><path d="M214.9999860243364 415.3929873705733C222.00756197632512 400.04639603571803 234.62119868990482 340.7833262097495 248.6363505938822 341.72934896326797C262.6515024978596 342.67537171678646 268.25756325945065 410.15832813443774 282.272715163428 419.93389658746196C296.28786706740544 429.70946504048624 301.8939278289964 384.552645605871 315.90907973297385 388.6520775377844C329.9242316369513 392.7515094696978 335.53029239854226 449.2816246743907 349.5454443025196 439.61116986064627C363.56059620649705 429.94071504690186 369.166656968088 342.6543489889305 383.1818088720654 342.23389443181117C397.19696077604283 341.8134398746919 402.80302153763387 436.64696523295504 416.8181734416113 437.59298798647353C430.8333253455886 438.539010739992 436.43938610717964 343.5162808310251 450.45453801115707 346.77480364869984C464.46968991513444 350.0333264663746 470.0757506767254 447.242420072362 484.09090258070285 453.2338975113123C498.1060544846803 459.2253749502627 503.71211524627125 374.4827589628632 517.7272671502487 375.5338953556615C531.7424190542262 376.5850317484598 537.3484798158171 458.80492039314333 551.3636317197945 458.2793521967442C565.3787836237718 457.75378400034504 577.9924203373516 390.77537305123695 584.9999962893403 373.0111680129456 " transform="rotate(15, 400, 400)"></path><path d="M251.99998576771134 412.31438379294303C257.60604652930226 400.0371107250588 267.696955900166 352.626654864284 278.909077423348 353.38347306709875C290.1211989465299 354.1402912699135 294.60604755580266 408.1266564040346 305.8181690789846 415.94711116645396C317.03029060216653 423.76756592887335 321.5151392114393 387.64211038118117 332.72726073462127 390.9216559267119C343.9393822578032 394.2012014722426 348.42423086707595 439.4252936359969 359.6363523902579 431.6889297850014C370.8484739134399 423.95256593400586 375.3333225227126 354.1234730876288 386.54544404589456 353.7871094419333C397.75756556907646 353.45074579623787 402.24241417834924 429.31756608284843 413.4545357015312 430.0743842856632C424.66665722471316 430.83120248847797 429.1515058339859 354.8130185613045 440.36362735716784 357.4198368154442C451.57574888034975 360.0266550695841 456.0605974896225 437.793929954374 467.2727190128045 442.58711190553424C478.48484053598645 447.3802938566945 482.96968914525917 379.58620106677495 494.18181066844113 380.4271101810136C505.3939321916231 381.2680192952522 509.87878080089587 447.04393021099906 521.0909023240778 446.6234756538797C532.3030238472597 446.2030210967604 542.3939332181234 392.620292337474 547.9999939797144 378.40892830684083 " transform="rotate(12, 400, 400)"></path><path d="M289.00000076987527 409.23579928879906C293.2045463410685 400.0278444878859 300.77272836921634 364.4700025923048 309.1818195116028 365.03761624441586C317.5909106539892 365.60522989652696 320.9545471109438 406.09500374711774 329.36363825333024 411.96034481893224C337.77272939571674 417.8256858907468 341.13636585267125 390.73159422997765 349.54545699505775 393.1912533891257C357.9545481374442 395.6509125482737 361.31818459439876 429.5689816710895 369.72727573678526 423.76670878284284C378.13636687917165 417.9644358945962 381.50000333612627 365.5926162598134 389.9090944785127 365.3403435255418C398.31818562089916 365.0880707912702 401.6818220778537 421.9881860062281 410.09091322024017 422.5557996583392C418.50000436262667 423.1234133104503 421.86364081958124 366.10977536507016 430.2727319619677 368.064889055675C438.68182310435407 370.02000274627983 442.0454595613087 428.34545890987226 450.45455070369513 431.9403453732425C458.8636418460816 435.5352318366127 462.2272783030362 384.689662244173 470.6363694454227 385.320344079852C479.0454605878091 385.951025915531 482.4090970447637 435.2829591023411 490.8181881871501 434.9676181845016C499.22727932953654 434.6522772666621 506.79546135768436 394.4652306971973 511.0000069288776 383.8067076742224 " transform="rotate(9, 400, 400)"></path><path d="M326.0000005132502 406.15718045237975C328.80303089404566 400.0185439184376 333.84848557947754 376.3133159880502 339.4545463410685 376.6917250894576C345.06060710265945 377.07013419086496 347.30303140729586 404.06331675792546 352.90909216888684 407.9735441391352C358.5151529304778 411.8837715203449 360.7575772351142 393.8210437464988 366.36363799670517 395.46081651926414C371.9696987582961 397.1005892920295 374.2121230629325 419.71263537390666 379.8181838245235 415.8444534484089C385.42424458611447 411.97627152291113 387.6666688907508 377.0617250997226 393.2727296523418 376.8935432768749C398.87879041393273 376.7253614540271 401.12121471856915 414.6587715973324 406.72727548016013 415.0371806987398C412.3333362417511 415.4155898001472 414.57576054638747 377.40649783656045 420.18182130797845 378.7099069636303C425.7878820695694 380.01331609070024 428.0303063742058 418.8969535330952 433.6363671357968 421.2935445086753C439.24242789738776 423.69013548425545 441.4848522020241 389.7930890892957 447.0909129636151 390.213543646415C452.6969737252061 390.6339982035343 454.93939802984244 423.52195366140774 460.5454587914334 423.31172638284806C466.1515195530244 423.1014991042884 471.1969742384562 396.3101347246452 474.00000461925174 389.2044527093286 " transform="rotate(6, 400, 400)"></path><path d="M362.9999964419278 403.0785959482358C364.40151163232554 400.00927768126473 366.9242389750415 388.15666371607097 369.727269355837 388.3458682667747C372.53029973663246 388.5350728174784 373.65151188895067 402.03166410100863 376.4545422697462 403.98677779161346C379.25757265054165 405.94189148221835 380.37878480285985 396.9105275952953 383.1818151836553 397.730413981678C385.9848455644508 398.5503003680607 387.106057716769 409.85632340899923 389.90908809756445 407.92223244625035C392.71211847835997 405.98814148350147 393.8333306306781 388.5308682719072 396.63636101147364 388.44677736048334C399.4393913922691 388.3626864490595 400.5606035445873 407.3293915207121 403.3636339253828 407.5185960714158C406.1666643061783 407.7078006221195 407.2878764584965 388.7032546403261 410.09090683929196 389.3549592038611C412.8939372200874 390.00666376739605 414.01514937240563 409.4484824885935 416.8181797532011 410.64677797638353C419.6212101339966 411.84507346417365 420.74242228631476 394.89655026669374 423.5454526671103 395.1067775452534C426.3484830479058 395.3170048238131 427.46969520022395 411.76098255274974 430.2727255810195 411.65586891346993C433.07575596181493 411.5507552741901 435.5984833045309 398.1550730843685 436.9999984949286 394.6022320767102 " transform="rotate(3, 400, 400)"></path></g></svg>